<?xml version="1.0" encoding="UTF-8" standalone="no"?>
<!-- Created with Inkscape (http://www.inkscape.org/) -->

<svg
   xmlns:dc="http://purl.org/dc/elements/1.1/"
   xmlns:cc="http://creativecommons.org/ns#"
   xmlns:rdf="http://www.w3.org/1999/02/22-rdf-syntax-ns#"
   xmlns:svg="http://www.w3.org/2000/svg"
   xmlns="http://www.w3.org/2000/svg"
   xmlns:sodipodi="http://sodipodi.sourceforge.net/DTD/sodipodi-0.dtd"
   xmlns:inkscape="http://www.inkscape.org/namespaces/inkscape"
   width="256"
   height="256"
   viewBox="0 0 67.733331 67.733331"
   version="1.1"
   id="svg8"
   inkscape:version="0.92.3 (2405546, 2018-03-11)"
   sodipodi:docname="taylor_bust_bowtie.svg">
  <defs
     id="defs2" />
  <sodipodi:namedview
     id="base"
     pagecolor="#ffffff"
     bordercolor="#666666"
     borderopacity="1.0"
     inkscape:pageopacity="0.0"
     inkscape:pageshadow="2"
     inkscape:zoom="1.28"
     inkscape:cx="2.7328971"
     inkscape:cy="151.89583"
     inkscape:document-units="px"
     inkscape:current-layer="layer1"
     showgrid="false"
     units="px"
     inkscape:pagecheckerboard="true"
     inkscape:snap-global="false"
     inkscape:window-width="1304"
     inkscape:window-height="745"
     inkscape:window-x="54"
     inkscape:window-y="-8"
     inkscape:window-maximized="1" />
  <metadata
     id="metadata5">
    <rdf:RDF>
      <cc:Work
         rdf:about="">
        <dc:format>image/svg+xml</dc:format>
        <dc:type
           rdf:resource="http://purl.org/dc/dcmitype/StillImage" />
        <dc:title></dc:title>
      </cc:Work>
    </rdf:RDF>
  </metadata>
  <g
     inkscape:label="Layer 1"
     inkscape:groupmode="layer"
     id="layer1"
     transform="translate(0,-229.26667)">
    <g
       id="g5337"
       transform="matrix(-1.009394,0,0,1.009394,67.694016,-2.6912911)">
      <path
         inkscape:connector-curvature="0"
         id="path5147-7"
         d="m 38.930081,288.90051 c -2.700568,4.74597 -6.143658,7.1597 -6.143658,7.1597 0,0 -3.336905,-0.22237 -4.2309,-4.72729 -0.893993,-4.5049 -3.351744,-8.75361 -1.958764,-10.70323 1.392978,-1.94963 3.304609,-1.94239 3.304609,-1.94239 0,0 7.71409,-1.64854 9.028713,10.21321 z"
         style="fill:#241c1c;stroke:#000000;stroke-width:0.21660562px;stroke-linecap:butt;stroke-linejoin:miter;stroke-opacity:1" />
      <g
         transform="matrix(0.91984746,0,0,0.91984746,3.3329502,17.293504)"
         id="g5143">
        <path
           style="fill:#d38521;fill-opacity:1;stroke:#000000;stroke-width:0.21442612px;stroke-linecap:butt;stroke-linejoin:miter;stroke-opacity:1"
           d="m 5.5997478,262.66145 c 0,0 0.6416982,-8.13868 0.9098564,-11.46798 1.2963293,-16.09448 13.8472248,-13.64514 22.2323348,-13.85257 13.108279,-0.28111 18.277157,3.19915 18.277157,3.19915 5.56354,1.50619 -4.655076,9.07674 5.404431,15.48066 0,0 3.454865,-7.59026 5.223935,1.19896 1.76907,8.78923 0.275671,13.30702 0.275671,13.30702 0,0 -2.515714,7.0513 -4.408799,3.56787 -1.850813,1.89239 -8.30927,10.8662 -8.30927,10.8662 0,0 -3.995997,2.83044 -5.534627,3.79712 -1.538639,0.96665 -14.351495,6.01603 -14.351495,6.01603 l -6.573779,-0.17015 -3.68116,-8.88776 c 0,0 -2.750336,-3.8549 -3.566103,-6.08963 -1.277291,-3.49904 -5.0231148,-4.55035 -1.9443368,-11.08744 z"
           id="path5069"
           inkscape:connector-curvature="0"
           sodipodi:nodetypes="csccszcccccccacc" />
        <path
           style="fill:#2b1100;stroke:#000000;stroke-width:0.25451028px;stroke-linecap:butt;stroke-linejoin:miter;stroke-opacity:1"
           d="M 7.447356,255.16201 C 4.2011047,258.34177 6.9688063,273.66703 4.3972518,249.06373 3.4328693,239.83702 18.654916,234.7469 27.727021,232.6025 c 8.100943,-1.91484 19.960592,-1.59608 24.605991,3.9587 3.655676,4.37131 9.503693,10.07051 7.501562,20.3064 -1.14288,5.84296 -1.28919,8.124 -1.28919,8.124 0.01725,-4.54112 -1.446598,-11.02088 -1.978363,-10.83972 -0.531764,0.18118 -0.467373,-1.7141 -3.856035,1.77319 -1.982475,2.04016 -2.457276,8.89061 -2.457276,8.89061 0,0 -0.328296,-14.10006 -3.753291,-15.12661 5.080582,-19.31323 -40.228457,-7.55789 -36.204694,-3.42639 0,0 -1.4148571,-0.3915 -0.6844813,6.77977 z"
           id="path5071"
           inkscape:connector-curvature="0"
           sodipodi:nodetypes="sssssccsccccs" />
        <path
           style="fill:none;stroke:#000000;stroke-width:0.25451028px;stroke-linecap:butt;stroke-linejoin:miter;stroke-opacity:1"
           d="m 22.502657,285.21922 6.25013,-0.57902"
           id="path5073"
           inkscape:connector-curvature="0" />
        <path
           sodipodi:nodetypes="ccc"
           style="fill:none;stroke:#000000;stroke-width:0.25451028px;stroke-linecap:butt;stroke-linejoin:miter;stroke-opacity:1"
           d="m 19.890455,282.89936 c 14.352099,-3.41074 9.657336,-1.14771 14.352099,-3.41074 4.694762,-2.26305 2.125357,-3.13369 2.125357,-3.13369"
           id="path5075"
           inkscape:connector-curvature="0" />
        <ellipse
           style="opacity:1;vector-effect:none;fill:#2b1100;fill-opacity:1;stroke:#000000;stroke-width:0.25451025px;stroke-linecap:butt;stroke-linejoin:miter;stroke-miterlimit:4;stroke-dasharray:none;stroke-dashoffset:0;stroke-opacity:1"
           id="path5100"
           cx="16.683187"
           cy="260.60498"
           rx="2.1635993"
           ry="2.3389659" />
        <ellipse
           style="opacity:1;vector-effect:none;fill:#2b1100;fill-opacity:1;stroke:#000000;stroke-width:0.25451025px;stroke-linecap:butt;stroke-linejoin:miter;stroke-miterlimit:4;stroke-dasharray:none;stroke-dashoffset:0;stroke-opacity:1"
           id="path5100-2"
           cx="35.24017"
           cy="258.38791"
           rx="2.1635993"
           ry="2.3389659" />
        <path
           style="fill:none;stroke:#000000;stroke-width:0.25451028px;stroke-linecap:butt;stroke-linejoin:miter;stroke-opacity:1"
           d="m 26.554609,263.67492 c 0,0 -0.347129,2.63931 -1.825908,4.55251 -1.434998,1.85655 -2.294811,4.7458 -2.054504,5.81272 0.408931,1.81555 3.375634,1.18916 3.136673,0.70831 -0.23896,-0.48084 0.729017,-1.54245 1.367831,-1.46813 1.252601,0.14574 1.352832,1.29382 1.352832,1.29382"
           id="path5117"
           inkscape:connector-curvature="0"
           sodipodi:nodetypes="csszsc" />
        <path
           style="fill:none;stroke:#000000;stroke-width:0.25451028px;stroke-linecap:butt;stroke-linejoin:miter;stroke-opacity:1"
           d="m 30.345171,255.0375 8.89252,-2.48085 3.920356,1.13705"
           id="path5121"
           inkscape:connector-curvature="0" />
        <path
           style="fill:none;stroke:#000000;stroke-width:0.25451028px;stroke-linecap:butt;stroke-linejoin:miter;stroke-opacity:1"
           d="m 19.731518,255.63263 -5.354635,-0.51685 -3.346647,1.03369"
           id="path5123"
           inkscape:connector-curvature="0" />
      </g>
      <path
         inkscape:connector-curvature="0"
         id="path5145"
         d="m 48.948626,273.32252 c 0,0 -3.442769,2.41392 -6.143337,7.15989 0.01875,0.16919 0.03899,0.33503 0.06031,0.49876 -2.110691,0.0676 -5.424568,0.42181 -6.516044,1.94108 -1.201021,1.67176 -0.707793,4.98264 0.707783,6.08983 1.415575,1.10721 8.210006,-0.41533 8.210006,-0.41533 0,0 0.167941,-0.18144 0.328274,-0.35729 2.693369,3.20879 6.238099,2.45615 6.238099,2.45615 0,0 1.911521,0.007 3.304498,-1.94244 1.392981,-1.94962 -1.064766,-6.19842 -1.958758,-10.70334 -0.893994,-4.50492 -4.230826,-4.72731 -4.230826,-4.72731 z"
         style="fill:#241c1c;stroke:#000000;stroke-width:0.25337255px;stroke-linecap:butt;stroke-linejoin:miter;stroke-opacity:1" />
      <path
         sodipodi:nodetypes="acccca"
         inkscape:connector-curvature="0"
         id="path5145-2"
         d="m 36.369526,283.06159 c -1.19981,1.67006 -0.707073,4.97738 0.707074,6.08344 1.414147,1.1061 8.202057,-0.41477 8.202057,-0.41477 0,0 2.828298,-2.90347 2.404053,-4.14782 -0.424246,-1.24433 -2.969714,-3.45651 -2.969714,-3.45651 0,0 -6.700536,-0.35121 -8.34347,1.93566 z"
         style="fill:none;stroke:#000000;stroke-width:0.25311688px;stroke-linecap:butt;stroke-linejoin:miter;stroke-opacity:1" />
      <path
         inkscape:connector-curvature="0"
         id="path5186"
         d="m 46.032015,281.8826 c 0.08541,-0.17083 0.170821,-0.34165 0.256232,-0.51247 0.04271,0 0.09792,0.0301 0.128123,0 0.126388,-0.12637 -0.26252,-0.25623 0.128109,-0.25623"
         style="fill:none;stroke:#000000;stroke-width:0.23191485px;stroke-linecap:butt;stroke-linejoin:miter;stroke-opacity:1" />
      <path
         inkscape:connector-curvature="0"
         id="path5188"
         d="m 47.313175,283.93245 c 0.170822,0 0.346743,0.0414 0.512463,0 0.04143,-0.0108 -0.03019,-0.098 0,-0.12813 0.03019,-0.0301 0.08542,0 0.128124,0 0.08912,0 0.594248,0.0232 0.640581,0 0.05401,-0.0269 0.0741,-0.10118 0.128109,-0.12813 0.137007,-0.0684 0.119224,0.0685 0.256232,0 0.316627,-0.15833 -0.04422,-0.12815 0.256232,-0.12815"
         style="fill:none;stroke:#000000;stroke-width:0.23191485px;stroke-linecap:butt;stroke-linejoin:miter;stroke-opacity:1" />
      <path
         inkscape:connector-curvature="0"
         id="path5190"
         d="m 47.953755,286.23854 c 0.973796,0 0.155168,-0.0764 0.768697,0.12815 0.08103,0.0269 0.179838,-0.0382 0.256232,0 0.05401,0.0269 0.07409,0.10118 0.128123,0.12813 0.03819,0.0191 0.08993,-0.0191 0.128123,0 0.05401,0.0269 0.07411,0.10118 0.128109,0.12813 0.102496,0.0512 0.281855,-0.0513 0.384348,0 0.05402,0.0269 0.07409,0.10104 0.128123,0.12814 0.03819,0.0191 0.08541,0 0.128109,0 0.04271,0 0.08543,0 0.128123,0"
         style="fill:none;stroke:#000000;stroke-width:0.23191485px;stroke-linecap:butt;stroke-linejoin:miter;stroke-opacity:1" />
      <path
         inkscape:connector-curvature="0"
         id="path5192"
         d="m 46.928827,287.51971 c 0.128123,0.17082 0.256232,0.34164 0.384348,0.51247 0.04271,0 0.08992,-0.0192 0.128122,0 0.05402,0.0269 0.07409,0.10105 0.128123,0.12814 0.03819,0.0191 0.09792,-0.0301 0.128123,0 0.03019,0.0301 0,0.0854 0,0.12814"
         style="fill:none;stroke:#000000;stroke-width:0.23191485px;stroke-linecap:butt;stroke-linejoin:miter;stroke-opacity:1" />
      <path
         inkscape:connector-curvature="0"
         id="path5196"
         d="m 35.654615,286.87914 c -0.597878,0 -1.195751,0 -1.793627,0"
         style="fill:none;stroke:#000000;stroke-width:0.23191485px;stroke-linecap:butt;stroke-linejoin:miter;stroke-opacity:1" />
      <path
         inkscape:connector-curvature="0"
         id="path5198"
         d="m 36.038962,288.16029 c -0.409973,0.54663 -0.384347,0.29894 -0.384347,0.64057 0,0.0427 0.03019,0.098 0,0.12814 -0.03019,0.0301 -0.09792,-0.0301 -0.12811,0 -0.03019,0.0301 0,0.0854 0,0.12814 0,0.0427 0,0.0853 0,0.12814"
         style="fill:none;stroke:#000000;stroke-width:0.23191485px;stroke-linecap:butt;stroke-linejoin:miter;stroke-opacity:1" />
    </g>
  </g>
</svg>
